<svg width="20" height="20" viewBox="0 0 20 20" fill="none" xmlns="http://www.w3.org/2000/svg">
<path d="M13.7284 4.50667L15.4934 6.27084M14.8634 2.95251L10.0909 7.72501C9.84432 7.97126 9.67614 8.28499 9.60758 8.62667L9.16675 10.8333L11.3734 10.3917C11.7151 10.3233 12.0284 10.1558 12.2751 9.90917L17.0476 5.13667C17.191 4.99326 17.3048 4.823 17.3824 4.63562C17.46 4.44824 17.4999 4.24741 17.4999 4.04459C17.4999 3.84177 17.46 3.64094 17.3824 3.45356C17.3048 3.26618 17.191 3.09592 17.0476 2.95251C16.9042 2.80909 16.7339 2.69533 16.5465 2.61772C16.3591 2.5401 16.1583 2.50015 15.9555 2.50015C15.7527 2.50015 15.5518 2.5401 15.3645 2.61772C15.1771 2.69533 15.0068 2.80909 14.8634 2.95251V2.95251Z" stroke="#5F8BFB" stroke-width="1.66667" stroke-linecap="round" stroke-linejoin="round"/>
<path d="M15.8334 12.5V15C15.8334 15.442 15.6578 15.866 15.3452 16.1785C15.0327 16.4911 14.6087 16.6667 14.1667 16.6667H5.00004C4.55801 16.6667 4.13409 16.4911 3.82153 16.1785C3.50897 15.866 3.33337 15.442 3.33337 15V5.83335C3.33337 5.39133 3.50897 4.9674 3.82153 4.65484C4.13409 4.34228 4.55801 4.16669 5.00004 4.16669H7.50004" stroke="#5F8BFB" stroke-width="1.66667" stroke-linecap="round" stroke-linejoin="round"/>
</svg>
