<svg width="17" height="17" viewBox="0 0 17 17" fill="none" xmlns="http://www.w3.org/2000/svg">
<path d="M12.5 3.33333H16.6667V5H15V15.8333C15 16.0543 14.9122 16.2663 14.7559 16.4226C14.5996 16.5789 14.3877 16.6667 14.1667 16.6667H2.5C2.27899 16.6667 2.06702 16.5789 1.91074 16.4226C1.75446 16.2663 1.66667 16.0543 1.66667 15.8333V5H0V3.33333H4.16667V0.833333C4.16667 0.61232 4.25446 0.400358 4.41074 0.244078C4.56702 0.0877973 4.77899 0 5 0H11.6667C11.8877 0 12.0996 0.0877973 12.2559 0.244078C12.4122 0.400358 12.5 0.61232 12.5 0.833333V3.33333ZM13.3333 5H3.33333V15H13.3333V5ZM9.51167 10L10.985 11.4733L9.80667 12.6517L8.33333 11.1783L6.86 12.6517L5.68167 11.4733L7.155 10L5.68167 8.52667L6.86 7.34833L8.33333 8.82167L9.80667 7.34833L10.985 8.52667L9.51167 10ZM5.83333 1.66667V3.33333H10.8333V1.66667H5.83333Z" fill="#DD6B6B"/>
</svg>
